<svg width="18" height="18" viewBox="0 0 18 18" fill="none" xmlns="http://www.w3.org/2000/svg">
<path d="M9.00001 1.79999C8.52262 1.79999 8.06479 1.98963 7.72722 2.3272C7.38965 2.66476 7.20001 3.1226 7.20001 3.59999C7.20001 4.07738 7.38965 4.53521 7.72722 4.87278C8.06479 5.21035 8.52262 5.39999 9.00001 5.39999C9.4774 5.39999 9.93524 5.21035 10.2728 4.87278C10.6104 4.53521 10.8 4.07738 10.8 3.59999C10.8 3.1226 10.6104 2.66476 10.2728 2.3272C9.93524 1.98963 9.4774 1.79999 9.00001 1.79999ZM7.77423 6.59999C6.88683 6.59999 6.07542 7.08616 5.65782 7.86796L4.38634 10.2457C4.14754 10.6099 4.13782 11.0801 4.36642 11.4551C4.57462 11.7971 4.94327 12.0012 5.33087 12.0012C5.38247 12.0012 5.43453 11.9966 5.48673 11.9894L6.60001 11.8465V12.6891L4.70275 14.0332C4.38775 14.257 4.20001 14.6206 4.20001 15.007C4.20001 15.6646 4.73478 16.2 5.39298 16.2H6.71603C6.64823 16.011 6.60001 15.8124 6.60001 15.6C6.60001 14.6058 7.40581 13.8 8.40001 13.8C8.74741 13.8 9.00001 13.8984 9.00001 13.8984L10.9863 14.5301L8.40001 15C8.32051 14.9989 8.24157 15.0136 8.16779 15.0432C8.09401 15.0728 8.02685 15.1169 7.97023 15.1727C7.91361 15.2285 7.86865 15.295 7.83796 15.3684C7.80727 15.4418 7.79147 15.5205 7.79147 15.6C7.79147 15.6795 7.80727 15.7582 7.83796 15.8316C7.86865 15.9049 7.91361 15.9715 7.97023 16.0273C8.02685 16.0831 8.09401 16.1271 8.16779 16.1568C8.24157 16.1864 8.32051 16.2011 8.40001 16.2H12.607C13.0948 16.2 13.4394 15.8568 13.6231 15.4312C13.679 15.3756 13.7234 15.3095 13.7538 15.2367C13.7841 15.164 13.7998 15.0859 13.8 15.007C13.8 14.62 13.6113 14.2562 13.2985 14.0332C13.2977 14.0332 13.2969 14.0332 13.2961 14.0332L11.4 12.6891V11.8465L12.5051 11.9883C12.9539 12.0525 13.3972 11.8433 13.6336 11.4551C13.8616 11.0801 13.8525 10.6105 13.6137 10.2457L12.3422 7.86796C11.924 7.08616 11.1126 6.59999 10.2258 6.59999H7.77423ZM9.09611 7.80233C10.0699 7.85333 10.8 8.72694 10.8 9.70194V9.93397C10.8 10.2658 10.5095 10.5209 10.1801 10.4789C9.94969 10.4489 9.76231 10.278 9.71251 10.0512L9.58595 9.47225C9.54995 9.30785 9.44959 9.17419 9.31759 9.09139C9.30859 9.08539 9.29907 9.07979 9.28947 9.07499C9.20247 9.02639 9.10438 8.99999 9.00118 8.99999H8.99884C8.90224 8.99999 8.80919 9.02301 8.72579 9.06561C8.70479 9.07641 8.68406 9.08814 8.66486 9.10194C8.54066 9.18534 8.4477 9.31388 8.4129 9.47108L8.28634 10.0512C8.23654 10.278 8.05033 10.4495 7.81993 10.4789C7.49113 10.5215 7.20001 10.2658 7.20001 9.93397V9.59999C7.20001 8.57399 8.05811 7.74833 9.09611 7.80233Z" fill="white"/>
</svg>
