<svg width="28" height="28" viewBox="0 0 28 28" fill="none" xmlns="http://www.w3.org/2000/svg">
<path d="M18.4625 2.80365C15.4282 2.91098 13.0667 5.49783 13.0667 8.5349V10.2667C13.0667 11.9728 12.1258 12.8354 10.9302 13.2508C9.63569 13.7016 8.16072 14.1411 7.90965 14.226C7.20872 14.4612 7.33692 15.0396 7.50678 15.2888C8.51572 16.7644 10.2107 17.7333 12.1333 17.7333C13.0797 17.7333 13.8688 17.5612 14.5268 17.2831C15.2474 16.9788 15.7866 17.9612 15.1594 18.4279C14.2214 19.1232 12.9435 19.6 11.2 19.6C8.98055 19.6 7.02224 18.4912 5.84064 16.8H3.98673C3.3558 16.8 2.95107 17.3105 3.35054 18.0469C4.254 19.7083 6.42509 22.5151 10.9849 23.1857C10.651 23.4646 10.4435 23.7198 10.4435 23.7198C10.3717 23.8191 10.3201 23.9317 10.2917 24.0509C10.2634 24.1702 10.2588 24.2939 10.2782 24.415C10.2977 24.536 10.3408 24.652 10.4051 24.7564C10.4694 24.8608 10.5537 24.9515 10.653 25.0233C10.7524 25.0952 10.8649 25.1467 10.9842 25.175C11.1035 25.2034 11.2272 25.2079 11.3482 25.1884C11.4693 25.169 11.5853 25.1258 11.6897 25.0615C11.794 24.9972 11.8847 24.9129 11.9565 24.8135C11.9565 24.8135 12.3634 24.2667 13.0667 24.2667C13.4183 24.2667 14.0531 24.4488 14.5487 24.6586C15.0443 24.8684 15.3982 25.0742 15.3982 25.0742C15.5042 25.1357 15.6214 25.1758 15.7429 25.192C15.8644 25.2083 15.9879 25.2005 16.1064 25.169C16.2249 25.1375 16.3361 25.083 16.4335 25.0085C16.5309 24.9341 16.6127 24.8412 16.6742 24.7352C16.7358 24.6291 16.7758 24.512 16.792 24.3905C16.8083 24.2689 16.8005 24.1454 16.769 24.0269C16.7375 23.9084 16.683 23.7973 16.6085 23.6999C16.5341 23.6024 16.4412 23.5206 16.3352 23.4591C16.3352 23.4591 15.9941 23.2753 15.5513 23.0708C22.5708 21.5106 24.0384 13.4142 24.2229 9.36979L25.8052 8.77917C26.2075 8.62984 26.2506 8.07771 25.8763 7.86771L24.0406 6.84141C23.3467 4.4467 21.1025 2.71008 18.4625 2.80365ZM21.4667 6.53334C22.0267 6.53334 22.4 6.90667 22.4 7.46667C22.4 8.02667 22.0267 8.4 21.4667 8.4C20.9067 8.4 20.5333 8.02667 20.5333 7.46667C20.5333 6.90667 20.9067 6.53334 21.4667 6.53334Z" fill="white"/>
</svg>
