<svg width="28" height="28" viewBox="0 0 28 28" fill="none" xmlns="http://www.w3.org/2000/svg">
<path d="M10.8609 2.81276C10.5476 2.84948 10.2667 3.10654 10.2667 3.47813V8.4L10.2721 8.39453C10.271 9.11271 10.4688 9.82143 10.8501 10.4655C11.2314 11.1095 11.786 11.6716 12.4706 12.1078C10.4023 13.6889 6.92665 14.7302 6.56433 20.4622C6.52979 21.0026 6.95633 21.4667 7.49766 21.4667H9.33334C9.84947 21.4667 10.2667 21.8839 10.2667 22.4C10.2667 22.9161 9.84947 23.3333 9.33334 23.3333H1.86667C1.74299 23.3316 1.6202 23.3544 1.50543 23.4006C1.39066 23.4467 1.2862 23.5151 1.19812 23.602C1.11004 23.6888 1.0401 23.7923 0.992365 23.9064C0.944627 24.0205 0.920044 24.143 0.920044 24.2667C0.920044 24.3904 0.944627 24.5128 0.992365 24.6269C1.0401 24.741 1.11004 24.8445 1.19812 24.9314C1.2862 25.0182 1.39066 25.0867 1.50543 25.1328C1.6202 25.1789 1.74299 25.2018 1.86667 25.2H10.2667H17.7333C18.112 25.1995 18.4816 25.0838 18.793 24.8682C19.1044 24.6527 19.3429 24.3476 19.4768 23.9934C19.6107 23.6391 19.6337 23.2525 19.5427 22.8849C19.4517 22.5173 19.2511 22.1861 18.9675 21.9352C19.2414 20.5967 19.6 18.5605 19.6 16.8C19.6 15.5078 19.2006 13.8283 18.7724 12.3831C19.5938 11.9665 20.2726 11.3808 20.7435 10.6822C21.2145 9.98364 21.4616 9.19579 21.4612 8.39453L21.4667 8.4V3.47813C21.4667 2.88359 20.7483 2.58506 20.3273 3.00599L18.869 4.46432C17.9719 3.98797 16.9305 3.73441 15.8667 3.73334C14.8033 3.73525 13.7625 3.98943 12.8661 4.46615L11.406 3.00599C11.2481 2.84814 11.0489 2.79073 10.8609 2.81276Z" fill="white"/>
</svg>
