<svg width="18" height="20" viewBox="0 0 18 20" fill="none" xmlns="http://www.w3.org/2000/svg">
<path d="M16.4 0.399996C16.3661 0.399922 16.3322 0.402009 16.2985 0.406246L16.2813 0.409371C16.2734 0.410297 16.2656 0.411339 16.2578 0.412496L5.88596 2.00781C5.69546 2.03525 5.52123 2.13046 5.39524 2.27596C5.26925 2.42147 5.19994 2.60752 5.20002 2.8V13.3687C5.20002 14.3199 5.09115 14.8 3.20315 14.8C1.11835 14.8 0.400024 16.0166 0.400024 17.2062C0.400024 18.1734 0.964825 19.6062 3.20002 19.6062C5.70322 19.6062 6.80002 18.0725 6.80002 16.7141V6.35156L15.6 4.91718V11.7687C15.6 12.7199 15.4912 13.2016 13.6032 13.2016C11.5184 13.2008 10.8 14.4166 10.8 15.6062C10.8 16.5734 11.3648 18.0062 13.6 18.0062C16.1032 18.0062 17.2 16.3209 17.2 14.9625V1.2C17.2 0.987823 17.1157 0.784339 16.9657 0.63431C16.8157 0.484281 16.6122 0.399996 16.4 0.399996V0.399996Z" fill="#8E8E93"/>
</svg>
