<svg width="22" height="22" viewBox="0 0 22 22" fill="none" xmlns="http://www.w3.org/2000/svg">
<path d="M13.1875 -0.0109498C12.9756 -0.00763745 12.7737 0.0796106 12.6261 0.231646C12.4784 0.383681 12.3971 0.588082 12.4 0.799988V1.59999H11.6C11.494 1.59849 11.3888 1.61807 11.2904 1.6576C11.192 1.69714 11.1025 1.75582 11.027 1.83026C10.9515 1.9047 10.8915 1.99339 10.8506 2.0912C10.8097 2.18901 10.7886 2.29397 10.7886 2.39999C10.7886 2.50601 10.8097 2.61097 10.8506 2.70878C10.8915 2.80658 10.9515 2.89528 11.027 2.96972C11.1025 3.04415 11.192 3.10284 11.2904 3.14237C11.3888 3.1819 11.494 3.20149 11.6 3.19999H12.4V3.99999C12.3985 4.106 12.4181 4.21125 12.4576 4.30962C12.4972 4.408 12.5559 4.49753 12.6303 4.57303C12.7047 4.64853 12.7934 4.70847 12.8912 4.74939C12.989 4.79031 13.094 4.81138 13.2 4.81138C13.306 4.81138 13.411 4.79031 13.5088 4.74939C13.6066 4.70847 13.6953 4.64853 13.7698 4.57303C13.8442 4.49753 13.9029 4.408 13.9424 4.30962C13.9819 4.21125 14.0015 4.106 14 3.99999V3.19999H14.8C14.906 3.20149 15.0113 3.1819 15.1097 3.14237C15.208 3.10284 15.2976 3.04415 15.3731 2.96972C15.4486 2.89528 15.5085 2.80658 15.5494 2.70878C15.5903 2.61097 15.6114 2.50601 15.6114 2.39999C15.6114 2.29397 15.5903 2.18901 15.5494 2.0912C15.5085 1.99339 15.4486 1.9047 15.3731 1.83026C15.2976 1.75582 15.208 1.69714 15.1097 1.6576C15.0113 1.61807 14.906 1.59849 14.8 1.59999H14V0.799988C14.0015 0.692956 13.9815 0.586719 13.9411 0.487567C13.9008 0.388414 13.841 0.298363 13.7652 0.222746C13.6895 0.14713 13.5993 0.0874841 13.5001 0.0473423C13.4008 0.00720049 13.2946 -0.0126215 13.1875 -0.0109498V-0.0109498ZM7.91252 2.63436C3.61572 3.58876 0.400024 7.41599 0.400024 12C0.400024 17.3016 4.69842 21.6 10 21.6C14.584 21.6 18.4112 18.3843 19.3656 14.0875C18.1368 14.7915 16.7176 15.2 15.2 15.2C10.5608 15.2 6.80002 11.4392 6.80002 6.79999C6.80002 5.28239 7.20852 3.86316 7.91252 2.63436ZM18 5.59999C17.5584 5.59999 17.2 5.95839 17.2 6.39999V7.19999C17.2 7.64159 16.8416 7.99999 16.4 7.99999H15.6C15.1584 7.99999 14.8 8.35839 14.8 8.79999C14.8 9.24159 15.1584 9.59999 15.6 9.59999H16.4C16.8416 9.59999 17.2 9.95839 17.2 10.4V11.2C17.2 11.6416 17.5584 12 18 12C18.4416 12 18.8 11.6416 18.8 11.2V10.4C18.8 9.95839 19.1584 9.59999 19.6 9.59999H20.4C20.8416 9.59999 21.2 9.24159 21.2 8.79999C21.2 8.35839 20.8416 7.99999 20.4 7.99999H19.6C19.1584 7.99999 18.8 7.64159 18.8 7.19999V6.39999C18.8 5.95839 18.4416 5.59999 18 5.59999Z" fill="#4870FF"/>
</svg>
