<svg width="28" height="28" viewBox="0 0 28 28" fill="none" xmlns="http://www.w3.org/2000/svg">
<path d="M9.33338 2.8C8.30205 2.8 7.46672 3.63534 7.46672 4.66667C5.92018 4.66667 4.66672 5.92014 4.66672 7.46667C4.66672 7.55067 4.68477 7.63063 4.69224 7.71276C4.1229 8.0329 3.73338 8.63427 3.73338 9.33334C3.73338 9.55547 3.77912 9.7662 3.85005 9.96407C3.21445 10.4774 2.80005 11.2532 2.80005 12.1333C2.80005 12.9771 3.18086 13.7255 3.77166 14.2388C3.19486 14.5571 2.80005 15.162 2.80005 15.8667C2.80005 16.898 3.63538 17.7333 4.66672 17.7333C4.66672 19.2799 5.92018 20.5333 7.46672 20.5333H8.40005V24.2667C8.40005 24.7819 8.81818 25.2 9.33338 25.2C9.84858 25.2 10.2667 24.7819 10.2667 24.2667V20.5333C10.2667 19.9631 10.4531 19.4007 10.8245 18.8836L12.1826 17.0607C11.5815 16.5473 11.2 15.7845 11.2 14.9333C11.2 14.2679 11.4387 13.6282 11.8745 13.1195L13.5407 10.8901C13.242 10.444 13.0667 9.90827 13.0667 9.33334C13.0667 8.83027 13.2096 8.34061 13.4915 7.88047C13.5204 7.83287 13.5526 7.78673 13.5862 7.74193L14.6399 6.32552C14.4196 6.14912 14.1766 5.99647 13.9144 5.88073C13.6194 4.6506 12.5207 3.73334 11.2 3.73334C11.116 3.73334 11.0361 3.75139 10.954 3.75886C10.6338 3.18952 10.0324 2.8 9.33338 2.8ZM18.6667 4.66667C18.3372 4.66667 18.0618 4.84746 17.8956 5.10599L17.881 5.09688L15.0829 8.85573C14.9961 8.99667 14.9334 9.15507 14.9334 9.33334C14.9334 9.84854 15.3515 10.2667 15.8667 10.2667H16.3334L13.3237 14.299C13.1669 14.466 13.0667 14.6869 13.0667 14.9333C13.0667 15.4485 13.4848 15.8667 14 15.8667H15.4L12.3211 19.9992C12.211 20.1523 12.1334 20.3308 12.1334 20.5333C12.1334 21.0485 12.5515 21.4667 13.0667 21.4667H17.7334V24.2667C17.7334 24.7819 18.1515 25.2 18.6667 25.2C19.1819 25.2 19.6 24.7819 19.6 24.2667V21.4667H24.2667C24.7819 21.4667 25.2 21.0485 25.2 20.5333C25.2 20.3308 25.1224 20.1523 25.0123 19.9992L21.9334 15.8667H23.3334C23.8486 15.8667 24.2667 15.4485 24.2667 14.9333C24.2667 14.6869 24.1665 14.466 24.0097 14.299L21 10.2667H21.4667C21.9819 10.2667 22.4 9.84854 22.4 9.33334C22.4 9.15507 22.3374 8.99667 22.2506 8.85573L19.4524 5.09688L19.4378 5.10599C19.2717 4.84746 18.9962 4.66667 18.6667 4.66667Z" fill="white"/>
</svg>
