<svg width="28" height="28" viewBox="0 0 28 28" fill="none" xmlns="http://www.w3.org/2000/svg">
<path d="M20.748 5.61213C20.2347 5.03627 19.4964 4.66667 18.6667 4.66667C17.5635 4.66667 16.7384 5.34053 16.1691 6.53333C12.3966 6.53333 2.80005 10.0791 2.80005 16.716C2.80005 17.822 3.54672 18.6667 4.54258 19.1473C4.09832 19.7223 3.73338 20.4913 3.73338 21.4667C3.73338 21.9819 4.15058 22.4 4.66672 22.4H14.9334C15.4495 22.4 15.8667 21.9819 15.8667 21.4667C15.8667 20.9515 15.4495 20.5333 14.9334 20.5333H10.0464C10.0464 20.5333 13.0667 19.4647 13.0667 16.8C13.0667 16.1887 12.7363 14.9333 11.2 14.9333C10.6839 14.9333 10.2667 14.5152 10.2667 14C10.2667 13.4848 10.6839 13.0667 11.2 13.0667C13.7088 13.0667 14.8326 14.8316 14.8326 16.5704C14.8326 17.4141 14.3258 18.9261 14.3258 18.9261C14.9474 18.984 15.7538 18.9709 16.689 18.7189C17.3283 19.9696 18.397 21.6673 18.9952 22.1769C19.1632 22.3216 19.3788 22.4 19.6 22.4H21.4667C21.9828 22.4 22.4 21.9819 22.4 21.4667C22.4 20.9515 21.9828 20.5333 21.4667 20.5333H19.992C19.8315 19.6355 19.5207 18.5696 19.2986 17.4141C20.1171 16.9241 22.4 14.7149 22.4 11.2C24.585 10.1687 25.2 8.47747 25.2 7.7924C25.2 6.46147 22.289 5.7316 20.748 5.61213ZM18.6667 8.4C18.1515 8.4 17.7334 7.98093 17.7334 7.46667C17.7334 6.9524 18.1515 6.53333 18.6667 6.53333C19.1819 6.53333 19.6 6.9524 19.6 7.46667C19.6 7.98093 19.1819 8.4 18.6667 8.4Z" fill="white"/>
</svg>
