<svg width="18" height="18" viewBox="0 0 18 18" fill="none" xmlns="http://www.w3.org/2000/svg">
<path d="M7.49999 1.79999C7.10216 1.79999 6.72063 1.95802 6.43933 2.23933C6.15802 2.52063 5.99999 2.90216 5.99999 3.29999C6.00071 3.42416 6.01685 3.54776 6.04803 3.66796C5.78985 3.7271 5.49239 3.83571 5.26405 4.06405C4.76725 4.56085 4.80116 5.39882 4.80116 5.39882C4.80116 5.39882 5.63912 5.43273 6.13592 4.93593C6.29924 4.77261 6.39299 4.57582 6.46171 4.38046C6.74066 4.64909 7.11271 4.79942 7.49999 4.79999C7.89781 4.79999 8.27934 4.64195 8.56065 4.36065C8.84195 4.07934 8.99999 3.69781 8.99999 3.29999C8.99999 2.90216 8.84195 2.52063 8.56065 2.23933C8.27934 1.95802 7.89781 1.79999 7.49999 1.79999ZM12 1.79999L10.4004 6.59999H8.95546C8.57912 6.23144 8.06904 5.99999 7.49999 5.99999C6.93094 5.99999 6.42086 6.23144 6.04452 6.59999H2.39999C2.32048 6.59886 2.24154 6.61355 2.16776 6.6432C2.09398 6.67285 2.02683 6.71686 1.97021 6.77269C1.91359 6.82852 1.86862 6.89504 1.83793 6.9684C1.80725 7.04175 1.79144 7.12047 1.79144 7.19999C1.79144 7.2795 1.80725 7.35822 1.83793 7.43158C1.86862 7.50493 1.91359 7.57146 1.97021 7.62728C2.02683 7.68311 2.09398 7.72713 2.16776 7.75677C2.24154 7.78642 2.32048 7.80111 2.39999 7.79999H15.6C15.6795 7.80111 15.7584 7.78642 15.8322 7.75677C15.906 7.72713 15.9731 7.68311 16.0298 7.62728C16.0864 7.57146 16.1314 7.50493 16.162 7.43158C16.1927 7.35822 16.2085 7.2795 16.2085 7.19999C16.2085 7.12047 16.1927 7.04175 16.162 6.9684C16.1314 6.89504 16.0864 6.82852 16.0298 6.77269C15.9731 6.71686 15.906 6.67285 15.8322 6.6432C15.7584 6.61355 15.6795 6.59886 15.6 6.59999H15.5683C15.2444 2.88924 12 1.79999 12 1.79999ZM2.39999 8.99999L2.99647 10.4918C3.36127 11.4026 4.24261 12 5.22421 12H12.7758C13.7568 12 14.6387 11.4026 15.0035 10.4918L15.6 8.99999H2.39999ZM6.29999 13.2C5.90216 13.2 5.52063 13.358 5.23933 13.6393C4.95802 13.9206 4.79999 14.3022 4.79999 14.7C4.79999 15.0978 4.95802 15.4793 5.23933 15.7606C5.52063 16.042 5.90216 16.2 6.29999 16.2C6.69781 16.2 7.07934 16.042 7.36065 15.7606C7.64195 15.4793 7.79999 15.0978 7.79999 14.7C7.79999 14.3022 7.64195 13.9206 7.36065 13.6393C7.07934 13.358 6.69781 13.2 6.29999 13.2ZM11.7 13.2C11.3022 13.2 10.9206 13.358 10.6393 13.6393C10.358 13.9206 10.2 14.3022 10.2 14.7C10.2 15.0978 10.358 15.4793 10.6393 15.7606C10.9206 16.042 11.3022 16.2 11.7 16.2C12.0978 16.2 12.4793 16.042 12.7606 15.7606C13.042 15.4793 13.2 15.0978 13.2 14.7C13.2 14.3022 13.042 13.9206 12.7606 13.6393C12.4793 13.358 12.0978 13.2 11.7 13.2Z" fill="white"/>
</svg>
