<svg width="16" height="16" viewBox="0 0 16 16" fill="none" xmlns="http://www.w3.org/2000/svg">
<path d="M7.99997 1.06666C5.94906 1.06666 4.26663 2.74908 4.26663 4.79999V5.86666H3.19997C2.6133 5.86666 2.1333 6.34666 2.1333 6.93332V13.3333C2.1333 13.92 2.6133 14.4 3.19997 14.4H12.8C13.3866 14.4 13.8666 13.92 13.8666 13.3333V6.93332C13.8666 6.34666 13.3866 5.86666 12.8 5.86666H11.7333V4.79999C11.7333 4.37586 11.675 3.95204 11.5458 3.56457C11.5429 3.55581 11.5398 3.54713 11.5364 3.53853C10.9815 2.12026 9.61911 1.06666 7.99997 1.06666ZM7.99997 2.13332C9.14993 2.13332 10.1287 2.88949 10.5364 3.91874C10.6177 4.16914 10.6666 4.48342 10.6666 4.79999V5.86666H5.3333V4.79999C5.3333 3.3309 6.53088 2.13332 7.99997 2.13332Z" fill="white"/>
</svg>
