<svg width="28" height="28" viewBox="0 0 28 28" fill="none" xmlns="http://www.w3.org/2000/svg">
<path d="M8.38544 1.8539C8.13822 1.85777 7.90264 1.95956 7.73039 2.13693C7.55814 2.31431 7.4633 2.55277 7.46669 2.8V3.73333H6.53335C6.40968 3.73158 6.28688 3.75443 6.17211 3.80055C6.05734 3.84667 5.95288 3.91514 5.8648 4.00198C5.77673 4.08882 5.70679 4.1923 5.65905 4.30641C5.61131 4.42052 5.58673 4.54297 5.58673 4.66666C5.58673 4.79035 5.61131 4.91281 5.65905 5.02692C5.70679 5.14103 5.77673 5.24451 5.8648 5.33135C5.95288 5.41819 6.05734 5.48666 6.17211 5.53278C6.28688 5.5789 6.40968 5.60175 6.53335 5.6H7.46669V6.53333C7.46494 6.65701 7.48779 6.7798 7.53391 6.89457C7.58003 7.00934 7.6485 7.1138 7.73534 7.20188C7.82218 7.28996 7.92566 7.3599 8.03977 7.40764C8.15387 7.45537 8.27633 7.47996 8.40002 7.47996C8.52371 7.47996 8.64617 7.45537 8.76027 7.40764C8.87438 7.3599 8.97786 7.28996 9.0647 7.20188C9.15154 7.1138 9.22001 7.00934 9.26613 6.89457C9.31225 6.7798 9.3351 6.65701 9.33335 6.53333V5.6H10.2667C10.3904 5.60175 10.5132 5.5789 10.6279 5.53278C10.7427 5.48666 10.8472 5.41819 10.9352 5.33135C11.0233 5.24451 11.0933 5.14103 11.141 5.02692C11.1887 4.91281 11.2133 4.79035 11.2133 4.66666C11.2133 4.54297 11.1887 4.42052 11.141 4.30641C11.0933 4.1923 11.0233 4.08882 10.9352 4.00198C10.8472 3.91514 10.7427 3.84667 10.6279 3.80055C10.5132 3.75443 10.3904 3.73158 10.2667 3.73333H9.33335V2.8C9.33506 2.67513 9.3117 2.55118 9.26464 2.43551C9.21759 2.31983 9.1478 2.21477 9.05941 2.12655C8.97102 2.03833 8.86583 1.96874 8.75006 1.92191C8.63429 1.87508 8.5103 1.85195 8.38544 1.8539ZM24.8664 2.80547L22.1539 3.54557C21.7479 3.65664 21.4667 4.02516 21.4667 4.44609V8.78099C21.4667 9.94485 18.6667 9.08496 18.6667 11.5154C18.6667 12.4487 19.2196 13.0667 20.2836 13.0667C21.9263 13.0667 22.4 11.8186 22.4 10.4326V5.96094L24.9667 5.19349C25.102 5.16642 25.2 5.04725 25.2 4.90911V3.0789C25.2 2.9025 25.0391 2.77093 24.8664 2.80547ZM13.2052 7.46849C9.79203 8.78915 7.46669 12.1928 7.46669 16.0727C7.46669 21.1136 11.5531 25.2 16.594 25.2C20.4739 25.2 23.8784 22.8755 25.2 19.4633C24.178 19.859 22.9705 19.9846 21.8094 19.9846C16.7685 19.9846 12.6839 15.8982 12.6839 10.8573C12.6839 9.69622 12.8095 8.48955 13.2052 7.46849ZM3.71877 8.38724C3.47155 8.3911 3.23597 8.49289 3.06372 8.67027C2.89147 8.84764 2.79663 9.08611 2.80002 9.33333C2.67634 9.33158 2.55355 9.35443 2.43878 9.40055C2.32401 9.44667 2.21955 9.51514 2.13147 9.60198C2.04339 9.68882 1.97345 9.7923 1.92571 9.90641C1.87798 10.0205 1.85339 10.143 1.85339 10.2667C1.85339 10.3904 1.87798 10.5128 1.92571 10.6269C1.97345 10.741 2.04339 10.8445 2.13147 10.9313C2.21955 11.0182 2.32401 11.0867 2.43878 11.1328C2.55355 11.1789 2.67634 11.2017 2.80002 11.2C2.79827 11.3237 2.82112 11.4465 2.86724 11.5612C2.91336 11.676 2.98183 11.7805 3.06867 11.8685C3.15551 11.9566 3.25899 12.0266 3.3731 12.0743C3.48721 12.122 3.60966 12.1466 3.73335 12.1466C3.85704 12.1466 3.9795 12.122 4.09361 12.0743C4.20771 12.0266 4.31119 11.9566 4.39804 11.8685C4.48488 11.7805 4.55335 11.676 4.59947 11.5612C4.64559 11.4465 4.66844 11.3237 4.66669 11.2C4.79036 11.2017 4.91316 11.1789 5.02793 11.1328C5.1427 11.0867 5.24716 11.0182 5.33524 10.9313C5.42331 10.8445 5.49325 10.741 5.54099 10.6269C5.58873 10.5128 5.61331 10.3904 5.61331 10.2667C5.61331 10.143 5.58873 10.0205 5.54099 9.90641C5.49325 9.7923 5.42331 9.68882 5.33524 9.60198C5.24716 9.51514 5.1427 9.44667 5.02793 9.40055C4.91316 9.35443 4.79036 9.33158 4.66669 9.33333C4.6684 9.20846 4.64503 9.08452 4.59798 8.96884C4.55092 8.85316 4.48113 8.7481 4.39274 8.65988C4.30435 8.57166 4.19916 8.50208 4.08339 8.45525C3.96762 8.40841 3.84364 8.38529 3.71877 8.38724Z" fill="white"/>
</svg>
