<svg width="28" height="28" viewBox="0 0 28 28" fill="none" xmlns="http://www.w3.org/2000/svg">
<path d="M21.4666 1.86667C21.3745 1.86716 21.283 1.88129 21.195 1.9086L12.8114 3.76615L12.8078 3.77162C12.6136 3.82767 12.4429 3.94523 12.3213 4.10664C12.1996 4.26804 12.1337 4.46457 12.1333 4.66667V14.9333C12.1333 15.9647 11.298 16.8 10.2666 16.8H9.80362C9.80241 16.8 9.80119 16.8 9.79998 16.8C8.68607 16.8 7.61778 17.2425 6.83013 18.0302C6.04247 18.8178 5.59998 19.8861 5.59998 21C5.59998 22.1139 6.04247 23.1822 6.83013 23.9698C7.61778 24.7575 8.68607 25.2 9.79998 25.2C10.9139 25.2 11.9822 24.7575 12.7698 23.9698C13.5575 23.1822 14 22.1139 14 21V9.1474L21.6107 7.45573C21.8306 7.42138 22.031 7.30955 22.1758 7.1404C22.3205 6.97126 22.4 6.75595 22.4 6.53334V2.8C22.4 2.55247 22.3016 2.31507 22.1266 2.14004C21.9516 1.965 21.7142 1.86667 21.4666 1.86667Z" fill="white"/>
</svg>
