<svg width="28" height="28" viewBox="0 0 28 28" fill="none" xmlns="http://www.w3.org/2000/svg">
<path d="M9.33338 3.73334C8.08894 3.73334 7.18234 4.35677 6.48234 4.82344C5.78234 5.29011 5.28894 5.6 4.66672 5.6C4.54304 5.59825 4.42025 5.6211 4.30548 5.66722C4.19071 5.71334 4.08625 5.78181 3.99817 5.86865C3.91009 5.9555 3.84015 6.05898 3.79241 6.17308C3.74468 6.28719 3.72009 6.40965 3.72009 6.53334C3.72009 6.65703 3.74468 6.77948 3.79241 6.89359C3.84015 7.0077 3.91009 7.11118 3.99817 7.19802C4.08625 7.28486 4.19071 7.35333 4.30548 7.39945C4.42025 7.44557 4.54304 7.46842 4.66672 7.46667C5.91116 7.46667 6.81776 6.84323 7.51776 6.37657C8.21776 5.9099 8.71116 5.6 9.33338 5.6C9.95561 5.6 10.449 5.9099 11.149 6.37657C11.849 6.84323 12.7556 7.46667 14.0001 7.46667C15.2445 7.46667 16.1511 6.84323 16.8511 6.37657C17.5511 5.9099 18.0445 5.6 18.6667 5.6C19.2889 5.6 19.7823 5.9099 20.4823 6.37657C21.1823 6.84323 22.0889 7.46667 23.3334 7.46667C23.4571 7.46842 23.5799 7.44557 23.6946 7.39945C23.8094 7.35333 23.9139 7.28486 24.0019 7.19802C24.09 7.11118 24.16 7.0077 24.2077 6.89359C24.2554 6.77948 24.28 6.65703 24.28 6.53334C24.28 6.40965 24.2554 6.28719 24.2077 6.17308C24.16 6.05898 24.09 5.9555 24.0019 5.86865C23.9139 5.78181 23.8094 5.71334 23.6946 5.66722C23.5799 5.6211 23.4571 5.59825 23.3334 5.6C22.7112 5.6 22.2178 5.29011 21.5178 4.82344C20.8178 4.35677 19.9112 3.73334 18.6667 3.73334C17.4223 3.73334 16.5157 4.35677 15.8157 4.82344C15.1157 5.29011 14.6223 5.6 14.0001 5.6C13.3778 5.6 12.8844 5.29011 12.1844 4.82344C11.4844 4.35677 10.5778 3.73334 9.33338 3.73334ZM9.33338 9.33334C8.08894 9.33334 7.18234 9.95677 6.48234 10.4234C5.78234 10.8901 5.28894 11.2 4.66672 11.2C4.54304 11.1983 4.42025 11.2211 4.30548 11.2672C4.19071 11.3133 4.08625 11.3818 3.99817 11.4687C3.91009 11.5555 3.84015 11.659 3.79241 11.7731C3.74468 11.8872 3.72009 12.0096 3.72009 12.1333C3.72009 12.257 3.74468 12.3795 3.79241 12.4936C3.84015 12.6077 3.91009 12.7112 3.99817 12.798C4.08625 12.8849 4.19071 12.9533 4.30548 12.9995C4.42025 13.0456 4.54304 13.0684 4.66672 13.0667C5.91116 13.0667 6.81776 12.4432 7.51776 11.9766C8.21776 11.5099 8.71116 11.2 9.33338 11.2C9.95561 11.2 10.449 11.5099 11.149 11.9766C11.849 12.4432 12.7556 13.0667 14.0001 13.0667C15.2445 13.0667 16.1511 12.4432 16.8511 11.9766C17.5511 11.5099 18.0445 11.2 18.6667 11.2C19.2889 11.2 19.7823 11.5099 20.4823 11.9766C21.1823 12.4432 22.0889 13.0667 23.3334 13.0667C23.4571 13.0684 23.5799 13.0456 23.6946 12.9995C23.8094 12.9533 23.9139 12.8849 24.0019 12.798C24.09 12.7112 24.16 12.6077 24.2077 12.4936C24.2554 12.3795 24.28 12.257 24.28 12.1333C24.28 12.0096 24.2554 11.8872 24.2077 11.7731C24.16 11.659 24.09 11.5555 24.0019 11.4687C23.9139 11.3818 23.8094 11.3133 23.6946 11.2672C23.5799 11.2211 23.4571 11.1983 23.3334 11.2C22.7112 11.2 22.2178 10.8901 21.5178 10.4234C20.8178 9.95677 19.9112 9.33334 18.6667 9.33334C17.4223 9.33334 16.5157 9.95677 15.8157 10.4234C15.1157 10.8901 14.6223 11.2 14.0001 11.2C13.3778 11.2 12.8844 10.8901 12.1844 10.4234C11.4844 9.95677 10.5778 9.33334 9.33338 9.33334ZM9.33338 14.9333C8.08894 14.9333 7.18234 15.5568 6.48234 16.0234C5.78234 16.4901 5.28894 16.8 4.66672 16.8C4.54304 16.7983 4.42025 16.8211 4.30548 16.8672C4.19071 16.9133 4.08625 16.9818 3.99817 17.0687C3.91009 17.1555 3.84015 17.259 3.79241 17.3731C3.74468 17.4872 3.72009 17.6096 3.72009 17.7333C3.72009 17.857 3.74468 17.9795 3.79241 18.0936C3.84015 18.2077 3.91009 18.3112 3.99817 18.398C4.08625 18.4849 4.19071 18.5533 4.30548 18.5995C4.42025 18.6456 4.54304 18.6684 4.66672 18.6667C5.91116 18.6667 6.81776 18.0432 7.51776 17.5766C8.21776 17.1099 8.71116 16.8 9.33338 16.8C9.95561 16.8 10.449 17.1099 11.149 17.5766C11.849 18.0432 12.7556 18.6667 14.0001 18.6667C15.2445 18.6667 16.1511 18.0432 16.8511 17.5766C17.5511 17.1099 18.0445 16.8 18.6667 16.8C19.2889 16.8 19.7823 17.1099 20.4823 17.5766C21.1823 18.0432 22.0889 18.6667 23.3334 18.6667C23.4571 18.6684 23.5799 18.6456 23.6946 18.5995C23.8094 18.5533 23.9139 18.4849 24.0019 18.398C24.09 18.3112 24.16 18.2077 24.2077 18.0936C24.2554 17.9795 24.28 17.857 24.28 17.7333C24.28 17.6096 24.2554 17.4872 24.2077 17.3731C24.16 17.259 24.09 17.1555 24.0019 17.0687C23.9139 16.9818 23.8094 16.9133 23.6946 16.8672C23.5799 16.8211 23.4571 16.7983 23.3334 16.8C22.7112 16.8 22.2178 16.4901 21.5178 16.0234C20.8178 15.5568 19.9112 14.9333 18.6667 14.9333C17.4223 14.9333 16.5157 15.5568 15.8157 16.0234C15.1157 16.4901 14.6223 16.8 14.0001 16.8C13.3778 16.8 12.8844 16.4901 12.1844 16.0234C11.4844 15.5568 10.5778 14.9333 9.33338 14.9333ZM9.33338 20.5333C8.08894 20.5333 7.18234 21.1568 6.48234 21.6234C5.78234 22.0901 5.28894 22.4 4.66672 22.4C4.54304 22.3983 4.42025 22.4211 4.30548 22.4672C4.19071 22.5133 4.08625 22.5818 3.99817 22.6687C3.91009 22.7555 3.84015 22.859 3.79241 22.9731C3.74468 23.0872 3.72009 23.2096 3.72009 23.3333C3.72009 23.457 3.74468 23.5795 3.79241 23.6936C3.84015 23.8077 3.91009 23.9112 3.99817 23.998C4.08625 24.0849 4.19071 24.1533 4.30548 24.1994C4.42025 24.2456 4.54304 24.2684 4.66672 24.2667C5.91116 24.2667 6.81776 23.6432 7.51776 23.1766C8.21776 22.7099 8.71116 22.4 9.33338 22.4C9.95561 22.4 10.449 22.7099 11.149 23.1766C11.849 23.6432 12.7556 24.2667 14.0001 24.2667C15.2445 24.2667 16.1511 23.6432 16.8511 23.1766C17.5511 22.7099 18.0445 22.4 18.6667 22.4C19.2889 22.4 19.7823 22.7099 20.4823 23.1766C21.1823 23.6432 22.0889 24.2667 23.3334 24.2667C23.4571 24.2684 23.5799 24.2456 23.6946 24.1994C23.8094 24.1533 23.9139 24.0849 24.0019 23.998C24.09 23.9112 24.16 23.8077 24.2077 23.6936C24.2554 23.5795 24.28 23.457 24.28 23.3333C24.28 23.2096 24.2554 23.0872 24.2077 22.9731C24.16 22.859 24.09 22.7555 24.0019 22.6687C23.9139 22.5818 23.8094 22.5133 23.6946 22.4672C23.5799 22.4211 23.4571 22.3983 23.3334 22.4C22.7112 22.4 22.2178 22.0901 21.5178 21.6234C20.8178 21.1568 19.9112 20.5333 18.6667 20.5333C17.4223 20.5333 16.5157 21.1568 15.8157 21.6234C15.1157 22.0901 14.6223 22.4 14.0001 22.4C13.3778 22.4 12.8844 22.0901 12.1844 21.6234C11.4844 21.1568 10.5778 20.5333 9.33338 20.5333Z" fill="white"/>
</svg>
