<svg width="20" height="20" viewBox="0 0 20 20" fill="none" xmlns="http://www.w3.org/2000/svg">
<path d="M12.4 13.2V11.6C12.76 11.4216 13.7896 10.196 13.8976 9.2384C14.1808 9.2168 14.6256 8.9568 14.7568 7.9304C14.8272 7.3792 14.5472 7.0696 14.3776 6.972C14.3776 6.972 14.8 6.1696 14.8 5.2008C14.8 3.2584 14.0376 1.6008 12.4 1.6008C12.4 1.6008 11.8312 0.400803 10 0.400803C6.60642 0.400803 5.20002 2.5776 5.20002 5.2008C5.20002 6.084 5.62242 6.972 5.62242 6.972C5.45282 7.0696 5.17282 7.38 5.24322 7.9304C5.37442 8.9568 5.81922 9.2168 6.10242 9.2384C6.21042 10.196 7.24002 11.4216 7.60002 11.6V13.2C6.80002 15.6 0.400024 14 0.400024 19.6H19.6C19.6 14 13.2 15.6 12.4 13.2Z" fill="#8E8E93"/>
</svg>
