<svg width="28" height="28" viewBox="0 0 28 28" fill="none" xmlns="http://www.w3.org/2000/svg">
<path d="M12.6 2.8C11.815 2.80071 11.0565 3.08409 10.4633 3.59827C9.87012 4.11245 9.48193 4.82304 9.36979 5.6C9.35764 5.59992 9.34548 5.59992 9.33333 5.6C8.59072 5.6 7.87853 5.895 7.35343 6.4201C6.82833 6.94521 6.53333 7.6574 6.53333 8.4C6.53333 9.14261 6.82833 9.8548 7.35343 10.3799C7.87853 10.905 8.59072 11.2 9.33333 11.2H19.6C20.0951 11.2 20.5699 11.0033 20.9199 10.6533C21.27 10.3032 21.4667 9.82841 21.4667 9.33334C21.4667 8.83827 21.27 8.36347 20.9199 8.0134C20.5699 7.66334 20.0951 7.46667 19.6 7.46667H19.5964C19.5964 6.72469 19.3019 6.01306 18.7775 5.48806C18.2532 4.96306 17.542 4.66764 16.8 4.66667C16.4046 4.66742 16.0138 4.75191 15.6534 4.91459C15.4194 4.29374 15.0019 3.75887 14.4565 3.38113C13.911 3.00339 13.2635 2.80069 12.6 2.8ZM17.7333 12.1333C17.7333 12.1333 16.8 13.4848 16.8 14C16.8 14.5152 17.2181 14.9333 17.7333 14.9333C18.2485 14.9333 18.6667 14.5152 18.6667 14C18.6667 13.4848 17.7333 12.1333 17.7333 12.1333ZM10.2667 13.0667C10.2667 13.0667 9.33333 14.4181 9.33333 14.9333C9.33333 15.4485 9.75146 15.8667 10.2667 15.8667C10.7819 15.8667 11.2 15.4485 11.2 14.9333C11.2 14.4181 10.2667 13.0667 10.2667 13.0667ZM14 14C14 14 13.0667 15.3515 13.0667 15.8667C13.0667 16.3819 13.4848 16.8 14 16.8C14.5152 16.8 14.9333 16.3819 14.9333 15.8667C14.9333 15.3515 14 14 14 14ZM2.74166 14.9206C2.60342 14.9286 2.46871 14.9673 2.34728 15.0339C2.22585 15.1005 2.12075 15.1932 2.03961 15.3054C1.95846 15.4176 1.9033 15.5465 1.87811 15.6827C1.85293 15.8188 1.85836 15.9589 1.89401 16.0927L3.40703 22.1448C3.40703 22.1454 3.40703 22.146 3.40703 22.1466C3.71803 23.3878 4.84457 24.2667 6.125 24.2667H21.8768C23.1572 24.2667 24.2832 23.3868 24.593 22.1448L26.106 16.0927C26.1357 15.9737 26.1417 15.85 26.1236 15.7287C26.1055 15.6074 26.0637 15.4909 26.0006 15.3857C25.9375 15.2806 25.8542 15.1889 25.7556 15.1159C25.6571 15.043 25.5451 14.9901 25.4261 14.9604C25.3071 14.9308 25.1834 14.9248 25.0621 14.9429C24.9408 14.961 24.8243 15.0029 24.7192 15.066C24.614 15.1292 24.5224 15.2124 24.4494 15.311C24.3765 15.4096 24.3237 15.5216 24.294 15.6406L23.625 18.3185C22.9892 18.5047 22.2387 18.6667 21.4667 18.6667C19.6 18.6667 17.7333 17.7333 17.7333 17.7333C17.7333 17.7333 15.8667 18.6667 14 18.6667C12.1333 18.6667 10.2667 17.7333 10.2667 17.7333C10.2667 17.7333 8.4 18.6667 6.53333 18.6667C5.76125 18.6667 5.01086 18.5046 4.375 18.3185L3.70599 15.6406C3.65948 15.4418 3.54908 15.2638 3.3917 15.1337C3.23431 15.0037 3.03863 14.9288 2.83463 14.9206C2.80366 14.919 2.77263 14.919 2.74166 14.9206Z" fill="white"/>
</svg>
