<svg width="18" height="18" viewBox="0 0 18 18" fill="none" xmlns="http://www.w3.org/2000/svg">
<path d="M4.20002 2.39999C3.72263 2.39999 3.2648 2.58964 2.92723 2.9272C2.58967 3.26477 2.40002 3.7226 2.40002 4.19999C2.40002 4.67738 2.58967 5.13522 2.92723 5.47279C3.2648 5.81035 3.72263 5.99999 4.20002 5.99999C4.67741 5.99999 5.13525 5.81035 5.47282 5.47279C5.81038 5.13522 6.00002 4.67738 6.00002 4.19999C6.00002 3.7226 5.81038 3.26477 5.47282 2.9272C5.13525 2.58964 4.67741 2.39999 4.20002 2.39999ZM9.00002 2.39999C8.52263 2.39999 8.0648 2.58964 7.72723 2.9272C7.38967 3.26477 7.20002 3.7226 7.20002 4.19999C7.20002 4.67738 7.38967 5.13522 7.72723 5.47279C8.0648 5.81035 8.52263 5.99999 9.00002 5.99999C9.47741 5.99999 9.93525 5.81035 10.2728 5.47279C10.6104 5.13522 10.8 4.67738 10.8 4.19999C10.8 3.7226 10.6104 3.26477 10.2728 2.9272C9.93525 2.58964 9.47741 2.39999 9.00002 2.39999ZM13.8 2.39999C13.3226 2.39999 12.8648 2.58964 12.5272 2.9272C12.1897 3.26477 12 3.7226 12 4.19999C12 4.67738 12.1897 5.13522 12.5272 5.47279C12.8648 5.81035 13.3226 5.99999 13.8 5.99999C14.2774 5.99999 14.7353 5.81035 15.0728 5.47279C15.4104 5.13522 15.6 4.67738 15.6 4.19999C15.6 3.7226 15.4104 3.26477 15.0728 2.9272C14.7353 2.58964 14.2774 2.39999 13.8 2.39999ZM4.20002 7.19999C3.72263 7.19999 3.2648 7.38964 2.92723 7.7272C2.58967 8.06477 2.40002 8.5226 2.40002 8.99999C2.40002 9.47738 2.58967 9.93522 2.92723 10.2728C3.2648 10.6104 3.72263 10.8 4.20002 10.8C4.67741 10.8 5.13525 10.6104 5.47282 10.2728C5.81038 9.93522 6.00002 9.47738 6.00002 8.99999C6.00002 8.5226 5.81038 8.06477 5.47282 7.7272C5.13525 7.38964 4.67741 7.19999 4.20002 7.19999ZM9.00002 7.19999C8.52263 7.19999 8.0648 7.38964 7.72723 7.7272C7.38967 8.06477 7.20002 8.5226 7.20002 8.99999C7.20002 9.47738 7.38967 9.93522 7.72723 10.2728C8.0648 10.6104 8.52263 10.8 9.00002 10.8C9.47741 10.8 9.93525 10.6104 10.2728 10.2728C10.6104 9.93522 10.8 9.47738 10.8 8.99999C10.8 8.5226 10.6104 8.06477 10.2728 7.7272C9.93525 7.38964 9.47741 7.19999 9.00002 7.19999ZM13.8 7.19999C13.3226 7.19999 12.8648 7.38964 12.5272 7.7272C12.1897 8.06477 12 8.5226 12 8.99999C12 9.47738 12.1897 9.93522 12.5272 10.2728C12.8648 10.6104 13.3226 10.8 13.8 10.8C14.2774 10.8 14.7353 10.6104 15.0728 10.2728C15.4104 9.93522 15.6 9.47738 15.6 8.99999C15.6 8.5226 15.4104 8.06477 15.0728 7.7272C14.7353 7.38964 14.2774 7.19999 13.8 7.19999ZM4.20002 12C3.72263 12 3.2648 12.1896 2.92723 12.5272C2.58967 12.8648 2.40002 13.3226 2.40002 13.8C2.40002 14.2774 2.58967 14.7352 2.92723 15.0728C3.2648 15.4104 3.72263 15.6 4.20002 15.6C4.67741 15.6 5.13525 15.4104 5.47282 15.0728C5.81038 14.7352 6.00002 14.2774 6.00002 13.8C6.00002 13.3226 5.81038 12.8648 5.47282 12.5272C5.13525 12.1896 4.67741 12 4.20002 12ZM9.00002 12C8.52263 12 8.0648 12.1896 7.72723 12.5272C7.38967 12.8648 7.20002 13.3226 7.20002 13.8C7.20002 14.2774 7.38967 14.7352 7.72723 15.0728C8.0648 15.4104 8.52263 15.6 9.00002 15.6C9.47741 15.6 9.93525 15.4104 10.2728 15.0728C10.6104 14.7352 10.8 14.2774 10.8 13.8C10.8 13.3226 10.6104 12.8648 10.2728 12.5272C9.93525 12.1896 9.47741 12 9.00002 12ZM13.8 12C13.3226 12 12.8648 12.1896 12.5272 12.5272C12.1897 12.8648 12 13.3226 12 13.8C12 14.2774 12.1897 14.7352 12.5272 15.0728C12.8648 15.4104 13.3226 15.6 13.8 15.6C14.2774 15.6 14.7353 15.4104 15.0728 15.0728C15.4104 14.7352 15.6 14.2774 15.6 13.8C15.6 13.3226 15.4104 12.8648 15.0728 12.5272C14.7353 12.1896 14.2774 12 13.8 12Z" fill="white"/>
</svg>
