<svg width="19" height="18" viewBox="0 0 19 18" fill="none" xmlns="http://www.w3.org/2000/svg">
<path d="M9.49998 0.970306C9.30378 0.970306 9.10707 1.05538 8.99607 1.22578L6.52693 5.03085L2.14412 6.2039C1.94792 6.2561 1.79228 6.40385 1.72928 6.59765C1.66688 6.79085 1.70577 7.00352 1.83357 7.16132L4.68943 10.6863L4.45154 15.2156C4.44074 15.4184 4.53323 15.613 4.69763 15.7324C4.74514 15.7671 4.79837 15.7919 4.85232 15.8109C4.86773 15.8164 4.88345 15.8185 4.8992 15.8227C4.9394 15.8332 4.9796 15.8405 5.02107 15.8426C5.03098 15.8431 5.04043 15.8473 5.05037 15.8473C5.05904 15.8473 5.06746 15.8429 5.07615 15.8426C5.14041 15.8399 5.2043 15.8308 5.26599 15.8074L9.49998 14.182L13.7351 15.8074C13.8047 15.8338 13.877 15.8473 13.9496 15.8473C14.0744 15.8473 14.1985 15.808 14.3023 15.7324C14.4667 15.613 14.5592 15.4184 14.5484 15.2156L14.3117 10.6863L17.1664 7.16132C17.2936 7.00352 17.3337 6.79085 17.2707 6.59765C17.2077 6.40445 17.052 6.2567 16.8558 6.2039L12.473 5.03085L10.0039 1.22578C9.89348 1.05538 9.69618 0.970306 9.49998 0.970306ZM9.49998 2.65429L11.4676 5.68359L11.7183 6.07031L12.1636 6.18984L15.6523 7.12382L13.3789 9.93163L13.0894 10.2891L13.1129 10.7496L13.3027 14.3566L9.93006 13.0617L9.49998 12.8965V2.65429Z" fill="#FF9C41"/>
</svg>
