<svg width="15" height="16" viewBox="0 0 15 16" fill="none" xmlns="http://www.w3.org/2000/svg">
<path d="M7.50002 0.200012C5.18742 0.200012 3.30002 2.08741 3.30002 4.40001V5.60001H2.10002C1.43702 5.60001 0.900024 6.13701 0.900024 6.80001V14C0.900024 14.663 1.43702 15.2 2.10002 15.2H12.9C13.563 15.2 14.1 14.663 14.1 14V6.80001C14.1 6.13701 13.563 5.60001 12.9 5.60001H4.50002V4.40001C4.50002 2.73581 5.83583 1.40001 7.50002 1.40001C8.81063 1.40001 9.91374 2.23681 10.3254 3.4004C10.3503 3.47643 10.3902 3.5467 10.4427 3.60709C10.4952 3.66748 10.5592 3.71677 10.631 3.75205C10.7028 3.78734 10.7809 3.8079 10.8608 3.81255C10.9407 3.81719 11.0207 3.80581 11.0961 3.77909C11.1715 3.75236 11.2408 3.71083 11.2999 3.65693C11.359 3.60302 11.4068 3.53784 11.4403 3.46522C11.4739 3.39259 11.4926 3.31399 11.4953 3.23403C11.4981 3.15407 11.4848 3.07437 11.4563 2.99962C10.8792 1.36841 9.32262 0.200012 7.50002 0.200012Z" fill="white"/>
</svg>
