<svg width="28" height="28" viewBox="0 0 28 28" fill="none" xmlns="http://www.w3.org/2000/svg">
<path d="M17.5365 1.02812C17.3193 1.0315 17.11 1.11052 16.9448 1.25159C16.7796 1.39265 16.6688 1.58692 16.6314 1.80091C16.5941 2.01491 16.6325 2.23523 16.7402 2.42393C16.8478 2.61262 17.0179 2.75786 17.2211 2.83463C20.8537 4.25426 23.7457 7.14629 25.1654 10.7789C25.21 10.8931 25.2767 10.9974 25.3617 11.0858C25.4466 11.1742 25.5481 11.245 25.6604 11.2942C25.7728 11.3433 25.8937 11.3699 26.0162 11.3724C26.1388 11.3748 26.2607 11.3531 26.3749 11.3085C26.4891 11.2638 26.5933 11.1971 26.6818 11.1122C26.7702 11.0272 26.841 10.9257 26.8902 10.8134C26.9393 10.7011 26.9659 10.5802 26.9683 10.4576C26.9708 10.335 26.9491 10.2131 26.9044 10.099C25.2945 5.9793 22.0207 2.70553 17.901 1.09557C17.7853 1.04893 17.6613 1.026 17.5365 1.02812ZM16.8784 4.81796C16.669 4.82678 16.4686 4.90581 16.3096 5.04233C16.1506 5.17885 16.0422 5.36492 16.0017 5.57057C15.9613 5.77622 15.9913 5.98949 16.0868 6.17604C16.1824 6.36258 16.3379 6.51155 16.5284 6.59895C18.6608 7.61255 20.3874 9.3392 21.401 11.4716C21.4508 11.5868 21.5233 11.6907 21.6141 11.7773C21.7049 11.8638 21.8123 11.9312 21.9297 11.9753C22.0472 12.0194 22.1723 12.0394 22.2977 12.0341C22.423 12.0287 22.546 11.9982 22.6593 11.9442C22.7725 11.8903 22.8738 11.8141 22.9569 11.7201C23.0401 11.6262 23.1034 11.5164 23.1432 11.3974C23.183 11.2784 23.1984 11.1527 23.1884 11.0276C23.1785 10.9025 23.1435 10.7807 23.0854 10.6695C21.887 8.14833 19.8517 6.11298 17.3305 4.91458C17.1903 4.84498 17.0348 4.81175 16.8784 4.81796ZM11.2 7.46666L9.9349 9.36432C9.56343 9.92152 9.51863 10.6354 9.81823 11.2346L10.2667 12.1333L4.1836 19.075C3.89333 19.4138 3.73334 19.8447 3.73334 20.2909V22.9469L2.14011 24.5401C2.05053 24.6261 1.97902 24.7291 1.92975 24.8431C1.88049 24.9571 1.85446 25.0798 1.8532 25.2039C1.85193 25.3281 1.87546 25.4513 1.9224 25.5662C1.96933 25.6812 2.03874 25.7856 2.12654 25.8735C2.21435 25.9613 2.3188 26.0307 2.43376 26.0776C2.54873 26.1245 2.6719 26.1481 2.79607 26.1468C2.92024 26.1455 3.04291 26.1195 3.1569 26.0702C3.27089 26.021 3.3739 25.9495 3.4599 25.8599L5.05313 24.2667H7.70912C8.15432 24.2667 8.58621 24.1067 8.92501 23.8164L15.8667 17.7333L16.7654 18.1818C17.3646 18.4814 18.0785 18.4366 18.6357 18.0651L20.5333 16.8C20.5333 16.8 20.5333 13.0667 17.7333 10.2667C14.9333 7.46666 11.2 7.46666 11.2 7.46666ZM13.0667 14C13.3055 14 13.5446 14.091 13.7266 14.2734C14.0915 14.6374 14.0915 15.2292 13.7266 15.5932L12.7932 16.5266C12.4283 16.8915 11.8374 16.8915 11.4734 16.5266C11.1085 16.1616 11.1085 15.5708 11.4734 15.2068L12.4068 14.2734C12.5892 14.091 12.8279 14 13.0667 14Z" fill="white"/>
</svg>
